<svg width="29" height="28" viewBox="0 0 29 28" fill="none" xmlns="http://www.w3.org/2000/svg">
<g id="google-color_svgrepo.com" clip-path="url(#clip0_2368_16368)">
<g id="Icons">
<g id="Color-">
<g id="Google">
<path id="Fill-1" fill-rule="evenodd" clip-rule="evenodd" d="M6.52202 13.9939C6.52202 13.1047 6.66969 12.2523 6.93327 11.4527L2.31979 7.92969C1.42065 9.75529 0.914062 11.8124 0.914062 13.9939C0.914062 16.1735 1.42002 18.2293 2.31792 20.0537L6.92891 16.5238C6.66782 15.728 6.52202 14.8787 6.52202 13.9939Z" fill="#FBBC05"/>
<path id="Fill-2" fill-rule="evenodd" clip-rule="evenodd" d="M14.6229 5.90469C16.5545 5.90469 18.2992 6.58913 19.6701 7.70913L23.658 3.72691C21.2278 1.61135 18.1123 0.304688 14.6229 0.304688C9.20563 0.304688 4.54979 3.40273 2.32031 7.9294L6.93379 11.4524C7.99681 8.22558 11.027 5.90469 14.6229 5.90469Z" fill="#EB4335"/>
<path id="Fill-3" fill-rule="evenodd" clip-rule="evenodd" d="M14.6229 22.079C11.027 22.079 7.99681 19.7581 6.93379 16.5312L2.32031 20.0537C4.54979 24.5809 9.20563 27.679 14.6229 27.679C17.9665 27.679 21.1587 26.4918 23.5545 24.2673L19.1753 20.8818C17.9397 21.6602 16.3838 22.079 14.6229 22.079Z" fill="#34A853"/>
<path id="Fill-4" fill-rule="evenodd" clip-rule="evenodd" d="M27.7102 13.9889C27.7102 13.18 27.5856 12.3089 27.3987 11.5H14.625V16.7889H21.9777C21.61 18.5921 20.6093 19.9784 19.1774 20.8806L23.5566 24.2661C26.0733 21.9303 27.7102 18.4508 27.7102 13.9889Z" fill="#4285F4"/>
</g>
</g>
</g>
</g>
<defs>
<clipPath id="clip0_2368_16368">
<rect width="28" height="28" fill="white" transform="translate(0.5)"/>
</clipPath>
</defs>
</svg>
