<svg width="222" height="139" viewBox="0 0 222 139" fill="none" xmlns="http://www.w3.org/2000/svg">
<g id="Group 1707478198">
<g id="freepik--Envelope--inject-13">
<path id="Vector" d="M221.16 39.3666L83.2235 10.9771L62.8996 109.725L200.836 138.114L221.16 39.3666Z" fill="#000D3B"/>
<path id="Vector_2" d="M214.019 30.1737L76.0823 1.78418L55.7584 100.532L193.695 128.921L214.019 30.1737Z" fill="white"/>
<path id="Vector_3" d="M194.308 129.814L54.8484 101.12L55.0038 100.359L75.4906 0.87793L214.95 29.5564L214.795 30.318L194.308 129.814ZM56.6826 99.9079L193.096 127.98L213.178 30.7688L76.6875 2.69657L56.6826 99.9079Z" fill="#000D3B"/>
<path id="Vector_4" d="M134.899 66.1158C134.792 66.1147 134.685 66.0921 134.587 66.0494C134.488 66.0067 134.399 65.9447 134.324 65.8671L75.5217 2.29264C75.4364 2.22179 75.3671 2.13348 75.3188 2.03367C75.2704 1.93386 75.244 1.82485 75.2412 1.71396C75.2385 1.60308 75.2595 1.4929 75.3028 1.39081C75.3462 1.28872 75.4109 1.19708 75.4926 1.12208C75.5743 1.04708 75.6711 0.990445 75.7766 0.955971C75.882 0.921497 75.9936 0.909989 76.1038 0.92222C76.2141 0.934451 76.3204 0.970132 76.4157 1.02688C76.511 1.08362 76.5931 1.16011 76.6564 1.2512L135.086 64.4059L213.707 29.4478C213.894 29.3637 214.108 29.3573 214.3 29.4302C214.492 29.503 214.648 29.6491 214.733 29.8364C214.776 29.9289 214.801 30.0294 214.805 30.1317C214.809 30.2341 214.793 30.3362 214.756 30.4319C214.72 30.5277 214.665 30.6152 214.594 30.6891C214.523 30.7631 214.438 30.8219 214.344 30.8623L135.21 66.0536C135.113 66.0978 135.006 66.1191 134.899 66.1158Z" fill="#000D3B"/>
</g>
<g id="Group 1707478197">
<path id="Vector_5" d="M54.108 0.528486L53.4085 0L52.709 0.528486C52.709 0.528486 16.9581 20.8754 0.79248 28.6007C0.79248 28.6007 8.56443 72.1236 14.1136 91.7399C19.6627 111.356 41.4863 121.911 53.4085 128.921C65.3462 121.911 87.092 111.387 92.7034 91.7399C98.3147 72.0925 106.04 28.6007 106.04 28.6007C89.8899 20.8754 54.108 0.528486 54.108 0.528486Z" fill="#32D560"/>
<path id="Vector_6" d="M49.7403 84.6375L26.0203 64.3061C25.4773 63.8417 25.0312 63.275 24.7072 62.6381C24.3833 62.0013 24.188 61.3069 24.1324 60.5946C24.0202 59.156 24.484 57.7318 25.4219 56.6352C26.3597 55.5386 27.6948 54.8595 29.1334 54.7473C30.572 54.6351 31.9962 55.0989 33.0928 56.0368L48.6366 69.3734L75.2788 39.0784C76.2311 37.9942 77.5751 37.3327 79.0152 37.2394C80.4552 37.1461 81.8733 37.6287 82.9575 38.581C84.0417 39.5333 84.7032 40.8773 84.7965 42.3173C84.8898 43.7574 84.4072 45.1755 83.4549 46.2597L49.7403 84.6375Z" fill="white"/>
</g>
</g>
</svg>
