<svg width="24" height="28" viewBox="0 0 24 28" fill="none" xmlns="http://www.w3.org/2000/svg">
<g id="office 1" clip-path="url(#clip0_2368_16360)">
<path id="Vector" d="M6.18444 22.0385C5.38996 22.0385 4.74219 22.6571 4.74219 23.4248C4.74219 23.9466 5.04289 24.3937 5.49029 24.6323L11.0662 27.6206C11.5085 27.8699 12.0077 28.0008 12.5155 28.0006C12.855 28.0006 13.179 27.9411 13.4797 27.8367L15.3845 27.3076V22.0312C15.3924 22.0385 6.19202 22.0385 6.18444 22.0385Z" fill="url(#paint0_linear_2368_16360)"/>
<path id="Vector_2" d="M6.18444 22.0385C5.38996 22.0385 4.74219 22.6571 4.74219 23.4248C4.74219 23.9466 5.04289 24.3937 5.49029 24.6323L11.0662 27.6206C11.5085 27.8699 12.0077 28.0008 12.5155 28.0006C12.855 28.0006 13.179 27.9411 13.4797 27.8367L15.3845 27.3076V22.0312C15.3924 22.0385 6.19202 22.0385 6.18444 22.0385Z" fill="url(#paint1_linear_2368_16360)"/>
<path id="Vector_3" d="M13.3578 0.111729C13.0944 0.0365272 12.8218 -0.00107963 12.5479 2.35839e-05C12.0929 2.35839e-05 11.6379 0.0895627 11.229 0.298099C11.1444 0.335431 2.15957 5.21663 2.15957 5.21663C2.03619 5.27642 1.92041 5.35079 1.81249 5.42546C1.79733 5.43275 1.78945 5.44033 1.77399 5.44791C1.70458 5.49983 1.64275 5.55203 1.57362 5.60424C1.54271 5.6267 1.51179 5.65674 1.48875 5.67891C1.45025 5.71595 1.41146 5.75328 1.38084 5.79061C1.27292 5.90232 1.08772 6.1406 1.08772 6.1406C0.769978 6.59232 0.600206 7.13149 0.601818 7.68377V20.6509C0.601818 21.4188 1.24959 22.0375 2.04407 22.0375C2.24444 22.0375 2.42964 22.0001 2.59939 21.9255L5.16744 20.5319C5.63001 20.3085 6.00042 19.9282 6.1932 19.4586C6.23929 19.3618 6.27778 19.2428 6.30112 19.1232C6.3087 19.0935 6.31658 19.0561 6.31658 19.0264C6.31658 19.0118 6.32416 18.9893 6.32416 18.9745C6.33203 18.922 6.33962 18.8625 6.33962 18.8105C6.33962 18.7656 6.34749 18.7283 6.34749 18.6837V11.7824V9.62855C6.34749 9.02481 6.61728 8.48087 7.04164 8.10084C7.24201 7.92205 7.50421 7.76543 7.81278 7.66131C8.12107 7.54931 15.4169 5.0008 15.4169 5.0008V0.700587L13.3578 0.111729Z" fill="url(#paint2_linear_2368_16360)"/>
<path id="Vector_4" d="M13.3578 0.111729C13.0944 0.0365272 12.8218 -0.00107963 12.5479 2.35839e-05C12.0929 2.35839e-05 11.6379 0.0895627 11.229 0.298099C11.1444 0.335431 2.15957 5.21663 2.15957 5.21663C2.03619 5.27642 1.92041 5.35079 1.81249 5.42546C1.79733 5.43275 1.78945 5.44033 1.77399 5.44791C1.70458 5.49983 1.64275 5.55203 1.57362 5.60424C1.54271 5.6267 1.51179 5.65674 1.48875 5.67891C1.45025 5.71595 1.41146 5.75328 1.38084 5.79061C1.27292 5.90232 1.08772 6.1406 1.08772 6.1406C0.769978 6.59232 0.600206 7.13149 0.601818 7.68377V20.6509C0.601818 21.4188 1.24959 22.0375 2.04407 22.0375C2.24444 22.0375 2.42964 22.0001 2.59939 21.9255L5.16744 20.5319C5.63001 20.3085 6.00042 19.9282 6.1932 19.4586C6.23929 19.3618 6.27778 19.2428 6.30112 19.1232C6.3087 19.0935 6.31658 19.0561 6.31658 19.0264C6.31658 19.0118 6.32416 18.9893 6.32416 18.9745C6.33203 18.922 6.33962 18.8625 6.33962 18.8105C6.33962 18.7656 6.34749 18.7283 6.34749 18.6837V11.7824V9.62855C6.34749 9.02481 6.61728 8.48087 7.04164 8.10084C7.24201 7.92205 7.50421 7.76543 7.81278 7.66131C8.12107 7.54931 15.4169 5.0008 15.4169 5.0008V0.700587L13.3578 0.111729Z" fill="url(#paint3_linear_2368_16360)"/>
<path id="Vector_5" d="M21.5744 2.43592L13.4844 0.148438C14.6566 0.588259 15.3889 1.57931 15.3889 2.78678C15.3889 2.78678 15.3816 24.7195 15.3889 25.2486C15.3968 26.4409 14.6102 27.462 13.4844 27.842C13.7311 27.7749 21.5744 25.5913 21.5744 25.5913C22.7387 25.2337 23.5796 24.1901 23.5796 22.9459V5.08126C23.5871 3.84463 22.7387 2.79349 21.5744 2.43592Z" fill="url(#paint4_linear_2368_16360)"/>
</g>
<defs>
<linearGradient id="paint0_linear_2368_16360" x1="5.5425" y1="24.3141" x2="25.5879" y2="26.1291" gradientUnits="userSpaceOnUse">
<stop stop-color="#F32B44"/>
<stop offset="0.6" stop-color="#A4070A"/>
</linearGradient>
<linearGradient id="paint1_linear_2368_16360" x1="19.1259" y1="25.4626" x2="10.2268" y2="24.6568" gradientUnits="userSpaceOnUse">
<stop stop-opacity="0.4"/>
<stop offset="1" stop-opacity="0"/>
</linearGradient>
<linearGradient id="paint2_linear_2368_16360" x1="13.65" y1="-0.96595" x2="-1.11926" y2="20.8615" gradientUnits="userSpaceOnUse">
<stop stop-color="#800600"/>
<stop offset="0.6" stop-color="#C72127"/>
<stop offset="0.728" stop-color="#C13959"/>
<stop offset="0.847" stop-color="#BC4B81"/>
<stop offset="0.942" stop-color="#B95799"/>
<stop offset="1" stop-color="#B85BA2"/>
</linearGradient>
<linearGradient id="paint3_linear_2368_16360" x1="13.9665" y1="-1.40285" x2="10.8387" y2="3.21964" gradientUnits="userSpaceOnUse">
<stop stop-opacity="0.4"/>
<stop offset="1" stop-opacity="0"/>
</linearGradient>
<linearGradient id="paint4_linear_2368_16360" x1="18.5377" y1="-1.42477" x2="18.5377" y2="25.8943" gradientUnits="userSpaceOnUse">
<stop stop-color="#FFB900"/>
<stop offset="0.166" stop-color="#EF8400"/>
<stop offset="0.313" stop-color="#E25C01"/>
<stop offset="0.429" stop-color="#DB4401"/>
<stop offset="0.5" stop-color="#D83B01"/>
</linearGradient>
<clipPath id="clip0_2368_16360">
<rect width="22.9824" height="28" fill="white" transform="translate(0.601562)"/>
</clipPath>
</defs>
</svg>
